<mxfile host="app.diagrams.net" modified="2023-09-09T17:49:10.940Z" agent="Mozilla/5.0 (Windows NT 10.0; Win64; x64) AppleWebKit/537.36 (KHTML, like Gecko) Chrome/116.0.0.0 Safari/537.36" etag="O4gFYidUY8i6VxQKwLG0" version="21.7.2" type="device">
  <diagram name="Page-1" id="yShx42l79zu0BgzjqOM_">
    <mxGraphModel dx="969" dy="528" grid="1" gridSize="10" guides="1" tooltips="1" connect="1" arrows="1" fold="1" page="1" pageScale="1" pageWidth="827" pageHeight="1169" math="0" shadow="0">
      <root>
        <mxCell id="0" />
        <mxCell id="1" parent="0" />
      </root>
    </mxGraphModel>
  </diagram>
</mxfile>
